<svg xmlns="http://www.w3.org/2000/svg" viewBox="0 0 256.15 490.8"><defs><style>.cls-1{fill:#333;}</style></defs><title>arrow big</title><g id="Слой_2" data-name="Слой 2"><g id="Capa_1" data-name="Capa 1"><path class="cls-1" d="M18.36,3.13A10.66,10.66,0,0,0,3.28,18.21L230.39,245.35,3.26,472.46a10.67,10.67,0,1,0,14.82,15.35l.26-.27L253,252.88a10.68,10.68,0,0,0,0-15.09Z"/><path class="cls-1" d="M10.81,490.68a10.66,10.66,0,0,1-7.55-18.22L230.39,245.35,3.26,18.23a10.68,10.68,0,0,1,15.1-15.1L253,237.8a10.67,10.67,0,0,1,0,15.08L18.36,487.54A10.66,10.66,0,0,1,10.81,490.68Z"/></g></g></svg>