<svg xmlns="http://www.w3.org/2000/svg" viewBox="0 0 256.15 490.8"><defs><style>.cls-1{fill:#787878;}</style></defs><title>arrow small</title><g id="Слой_2" data-name="Слой 2"><g id="Capa_1" data-name="Capa 1"><path class="cls-1" d="M3.14,237.79a10.68,10.68,0,0,0,0,15.09L237.81,487.54l.26.27a10.67,10.67,0,1,0,14.82-15.35L25.76,245.35,252.87,18.21A10.66,10.66,0,0,0,237.79,3.13Z"/><path class="cls-1" d="M237.79,487.54,3.12,252.88a10.67,10.67,0,0,1,0-15.08L237.79,3.13a10.68,10.68,0,0,1,15.1,15.1L25.76,245.35,252.89,472.46a10.67,10.67,0,1,1-15.1,15.08Z"/></g></g></svg>