<svg xmlns="http://www.w3.org/2000/svg" viewBox="0 0 490.8 256.15"><defs><style>.cls-1{fill:#6c6259;}</style></defs><title>arrow</title><g id="Слой_2" data-name="Слой 2"><g id="Capa_1" data-name="Capa 1"><path class="cls-1" d="M487.67,18.36A10.66,10.66,0,0,0,472.59,3.28L245.45,230.39,18.34,3.26A10.67,10.67,0,1,0,3,18.08l.27.26L237.92,253A10.68,10.68,0,0,0,253,253Z"/><path class="cls-1" d="M.12,10.81A10.66,10.66,0,0,1,18.34,3.26L245.45,230.39,472.57,3.26a10.68,10.68,0,1,1,15.1,15.1L253,253a10.67,10.67,0,0,1-15.08,0L3.26,18.36A10.66,10.66,0,0,1,.12,10.81Z"/></g></g></svg>