<svg xmlns="http://www.w3.org/2000/svg" viewBox="0 0 504.01 503.9"><defs><style>.cls-1{fill:#333;}</style></defs><title>icon active</title><g id="Слой_2" data-name="Слой 2"><g id="_30-hair_dryer" data-name=" 30-hair dryer"><g id="filled"><path class="cls-1" d="M500.49,51.48C476.93,27.91,436.39,16,380,16c-49.92,0-128.18,11.89-191.07,21.44C151.68,43.08,119.5,48,108,48c-42.37,0-87.08-44-87.53-44.5C13.39-4.1-.34,1.6,0,12V204c-.33,10.35,13.34,16.05,20.47,8.49C20.93,212,65.64,168,108,168c22.82,0,77.88,7.91,131.12,15.56,21.87,3.14,43.29,6.22,62.93,8.84,11.05,14,19.69,30.4,26.43,47.6H316a12,12,0,0,0-12,12v48a12,12,0,0,0,12,12H347A470.74,470.74,0,0,1,352,395.34,12,12,0,0,0,363.38,408l.63,0h10.63c4.8,6.36,2.83,10.76-1.73,20.89-7,15.65-17.67,39.31,14.61,71.59a12,12,0,0,0,17-17c-20.57-20.57-16-30.73-9.69-44.78,3.6-8,8.4-18.69,5.77-30.73H412a12,12,0,0,0,12-11.15l14.45-202.24c26.86-5.65,47.64-15.71,62.06-30.13A12,12,0,0,0,504,156V60A12,12,0,0,0,500.49,51.48ZM380,128a20,20,0,1,1,20-20A20,20,0,0,1,380,128ZM24,37.91C41.35,51,67.81,67.31,96,71.13V144.8c-28.2,3.82-54.66,20.11-72,33.22Zm96,106.5V71.24c16.27-1.55,41.92-5.45,72.53-10.1,57.17-8.68,127.18-19.32,175.47-21V65.64a44,44,0,0,0,0,84.65v25.23c-28.52-1.82-77.69-8.88-125.47-15.75-48.62-7-94.9-13.63-122.53-15.37ZM328,288V264h8.61c2.32,8,4.3,16,6,24Zm72.82,96H376.28a508.12,508.12,0,0,0-4.58-69c-6.55-48.11-19.23-87.86-37.79-118.63C353,198.59,369,200,380,200a331.8,331.8,0,0,0,34.09-1.66ZM480,150.71c-13.33,11.31-39,23.35-88,25V150.29a44,44,0,0,0,0-84.65V40.18c49,1.7,74.67,13.73,88,25Z"/></g></g></g></svg>