<svg xmlns="http://www.w3.org/2000/svg" viewBox="0 0 512 512"><defs><style>.cls-1{fill:#999998;}</style></defs><title>icon2</title><g id="Слой_2" data-name="Слой 2"><g id="Capa_1" data-name="Capa 1"><path class="cls-1" d="M145,242H135V123.21c0-17.67-8.68-38-23.21-54.32C96.82,52.05,77.89,42,61.14,42c-10.62,0-20.08,4.07-26.65,11.46C28.24,60.5,25,70,25,81V242H15A15,15,0,0,0,0,257V457a55.06,55.06,0,0,0,55,55h50a55.06,55.06,0,0,0,55-55V257A15,15,0,0,0,145,242ZM30,272H130v30H30ZM55,81v-.09c0-3.39.68-6.14,1.92-7.53C57.25,73,58.15,72,61.14,72c6.61,0,17.9,5.2,28.23,16.82C98.86,99.5,105,113,105,123.21V242H55Zm75,376a25,25,0,0,1-25,25H55a25,25,0,0,1-25-25V332H130Z"/><path class="cls-1" d="M512,15A15,15,0,0,0,497,0H357a15,15,0,0,0-15,15V63a198.29,198.29,0,0,0,40,119.16V467a45,45,0,0,0,90,0V182.13A198.29,198.29,0,0,0,512,63ZM442,467a15,15,0,0,1-30,0V192h30ZM482,63a168.23,168.23,0,0,1-32.4,99H404.4A168.23,168.23,0,0,1,372,63V30h40V97a15,15,0,0,0,30,0V30h40Z"/><path class="cls-1" d="M295,242H245a55.06,55.06,0,0,0-55,55V497a15,15,0,0,0,15,15H335a15,15,0,0,0,15-15V297A55.06,55.06,0,0,0,295,242Zm-50,30h50a25,25,0,0,1,25,25V422H220V297A25,25,0,0,1,245,272ZM220,482V452H320v30Z"/></g></g></svg>