<svg xmlns="http://www.w3.org/2000/svg" viewBox="0 0 512 512"><defs><style>.cls-1{fill:#999998;}</style></defs><title>icon4</title><g id="Слой_2" data-name="Слой 2"><g id="Capa_1" data-name="Capa 1"><path class="cls-1" d="M467,254a44.82,44.82,0,0,0-27.88,9.71l-36.8-22.86,37.32-23.19a45,45,0,1,0-16.4-25.13L373.87,223.2l-5.53-3.44V152.49A152.48,152.48,0,0,0,215.86,0h-.35A156.49,156.49,0,0,0,59.37,156.49V370.21A115.6,115.6,0,0,0,0,471.13V512H461.2V463.32A108,108,0,0,0,368.34,356.5V255.08l54.73,34A45,45,0,1,0,467,254Zm0-87.1a15,15,0,1,1-15,15A15,15,0,0,1,467,166.9ZM30,471.13a85.61,85.61,0,0,1,85.51-85.52h55.06a74.94,74.94,0,0,0,96,26.64,112.19,112.19,0,0,0,71.8,40.18V482H124V438.44H94V482H30ZM143.22,227v-64.8H168.7a72.52,72.52,0,0,1,72.43,72.44V312.6a86.94,86.94,0,0,1-13.71.92c-46.43-.58-84.2-39.38-84.2-86.49Zm83.83,116.48a116,116,0,0,0,14.09-.67,111.5,111.5,0,0,0,9.54,43.66,44.88,44.88,0,0,1-54.9-17.13l10.33-28.05a113.71,113.71,0,0,0,20.94,2.19ZM431.21,463.32V482H368.34V386.91A78,78,0,0,1,431.21,463.32Zm-92.87-41.25a82.35,82.35,0,0,1-67.21-80.84V234.67A102.55,102.55,0,0,0,168.7,132.24H113.22V227a117,117,0,0,0,64.49,104.6l-8.83,24H115.51a115.48,115.48,0,0,0-26.14,3V156.49C89.37,86.89,146,30.15,215.58,30h.28A122.48,122.48,0,0,1,338.34,152.49v48.64l-27.36-17-15.82,25.48,43.18,26.82V422.07ZM467,314.06a15,15,0,1,1,15-15A15,15,0,0,1,467,314.06Z"/></g></g></svg>