<svg xmlns="http://www.w3.org/2000/svg" viewBox="0 0 512 481.61"><defs><style>.cls-1{fill:#999998;}</style></defs><title>icon1</title><g id="Слой_2" data-name="Слой 2"><g id="Capa_1" data-name="Capa 1"><path class="cls-1" d="M497,179.61H482v-15a45.05,45.05,0,0,0-36.8-44.23,54.86,54.86,0,0,0,6-18.85A90.24,90.24,0,0,0,421.4,22,88.7,88.7,0,0,0,345.85,1.62a15,15,0,0,0-8.37,24.73c6.67,7.47,3.94,16,2.45,19.32-2.87,6.43-10.05,13.94-20.8,13.94H135a75.1,75.1,0,0,0-73.88,62.2A45.07,45.07,0,0,0,30,164.61v15H15a15,15,0,0,0-15,15v212a75.09,75.09,0,0,0,75,75H437a75.08,75.08,0,0,0,75-75v-212A15,15,0,0,0,497,179.61Zm-362-90H319.13a53.08,53.08,0,0,0,48.19-31.7,49.2,49.2,0,0,0,3.93-27.31,58.43,58.43,0,0,1,30.38,14A60.27,60.27,0,0,1,421.49,97.7a25.25,25.25,0,0,1-25,21.91H92.59A45.09,45.09,0,0,1,135,89.61Zm-75,75a15,15,0,0,1,15-15H437a15,15,0,0,1,15,15v15H60Zm422,242a45,45,0,0,1-45,45H75a45,45,0,0,1-45-45v-197H482Z"/><path class="cls-1" d="M407,239.61H105a15,15,0,0,0-15,15v152a15,15,0,0,0,15,15H407a15,15,0,0,0,15-15v-152A15,15,0,0,0,407,239.61Zm-15,152H120v-122H392Z"/></g></g></svg>