<svg xmlns="http://www.w3.org/2000/svg" viewBox="0 0 244 387.2"><defs><style>.cls-1{fill:#555;}</style></defs><title>phone-2</title><g id="Слой_2" data-name="Слой 2"><g id="Capa_1" data-name="Capa 1"><path class="cls-1" d="M233.2,10.84v0a36.62,36.62,0,0,0-26-10.8H36.72A36.85,36.85,0,0,0,0,36.72V350.44A36.87,36.87,0,0,0,36.72,387.2H207.28A36.87,36.87,0,0,0,244,350.48V36.76A36.65,36.65,0,0,0,233.2,10.84ZM122,362.28h0a9.92,9.92,0,1,1,9.92-9.92A9.92,9.92,0,0,1,122,362.28ZM214.84,300a24,24,0,0,1-24,24H53.12a24,24,0,0,1-24-24V66.2a24,24,0,0,1,24-24H190.88a24,24,0,0,1,24,24Z"/></g></g></svg>